<svg xmlns="http://www.w3.org/2000/svg" width="16.136" height="16.136" viewBox="0 0 16.136 16.136">
  <g id="view" transform="translate(-0.793 -0.793)">
    <path id="Trazado_34" data-name="Trazado 34" d="M12.835,15.328a6.738,6.738,0,0,1-3.975,1.378c-4.684,0-7.361-5.353-7.361-5.353A12.346,12.346,0,0,1,4.886,7.378m2.57-1.218A6.1,6.1,0,0,1,8.861,6c4.684,0,7.361,5.353,7.361,5.353a12.379,12.379,0,0,1-1.445,2.135m-4.5-.716A2.007,2.007,0,1,1,7.442,9.935" transform="translate(0 -2.493)" fill="none" stroke="#b2b7c6" stroke-linecap="round" stroke-linejoin="round" stroke-width="1"/>
    <path id="Trazado_35" data-name="Trazado 35" d="M1.5,1.5,16.221,16.221" fill="none" stroke="#b2b7c6" stroke-linecap="round" stroke-linejoin="round" stroke-width="1"/>
  </g>
</svg>
